<svg width="30" height="22" viewBox="0 0 30 22" fill="none" xmlns="http://www.w3.org/2000/svg">
<path d="M21.2925 15.7075L19 13.4137V21C19 21.2652 18.8946 21.5196 18.7071 21.7071C18.5196 21.8946 18.2652 22 18 22C17.7348 22 17.4804 21.8946 17.2929 21.7071C17.1054 21.5196 17 21.2652 17 21V13.4137L14.7075 15.7075C14.6146 15.8004 14.5043 15.8741 14.3829 15.9244C14.2615 15.9747 14.1314 16.0006 14 16.0006C13.8686 16.0006 13.7385 15.9747 13.6171 15.9244C13.4957 15.8741 13.3854 15.8004 13.2925 15.7075C13.1996 15.6146 13.1259 15.5043 13.0756 15.3829C13.0253 15.2615 12.9994 15.1314 12.9994 15C12.9994 14.8686 13.0253 14.7385 13.0756 14.6171C13.1259 14.4957 13.1996 14.3854 13.2925 14.2925L17.2925 10.2925C17.3854 10.1995 17.4957 10.1258 17.6171 10.0754C17.7385 10.0251 17.8686 9.99921 18 9.99921C18.1314 9.99921 18.2615 10.0251 18.3829 10.0754C18.5043 10.1258 18.6146 10.1995 18.7075 10.2925L22.7075 14.2925C22.8004 14.3854 22.8741 14.4957 22.9244 14.6171C22.9747 14.7385 23.0006 14.8686 23.0006 15C23.0006 15.1314 22.9747 15.2615 22.9244 15.3829C22.8741 15.5043 22.8004 15.6146 22.7075 15.7075C22.6146 15.8004 22.5043 15.8741 22.3829 15.9244C22.2615 15.9747 22.1314 16.0006 22 16.0006C21.8686 16.0006 21.7385 15.9747 21.6171 15.9244C21.4957 15.8741 21.3854 15.8004 21.2925 15.7075ZM19 1.66064e-07C16.9569 0.0015414 14.9546 0.571521 13.217 1.64617C11.4794 2.72082 10.0751 4.25775 9.16125 6.085C8.07315 5.92511 6.96378 5.99128 5.9024 6.27939C4.84103 6.5675 3.85046 7.07136 2.99256 7.75949C2.13466 8.44762 1.42786 9.30525 0.916301 10.2788C0.404739 11.2524 0.0994069 12.321 0.0193733 13.4178C-0.0606602 14.5147 0.086324 15.6163 0.451146 16.6538C0.815968 17.6913 1.39079 18.6424 2.13972 19.4478C2.88864 20.2532 3.79558 20.8955 4.80389 21.3346C5.8122 21.7737 6.90022 22.0003 8 22H13C13.2652 22 13.5196 21.8946 13.7071 21.7071C13.8946 21.5196 14 21.2652 14 21C14 20.7348 13.8946 20.4804 13.7071 20.2929C13.5196 20.1054 13.2652 20 13 20H8C6.4087 20 4.88258 19.3679 3.75736 18.2426C2.63214 17.1174 2 15.5913 2 14C2 12.4087 2.63214 10.8826 3.75736 9.75736C4.88258 8.63214 6.4087 8 8 8C8.1375 8 8.275 8 8.41125 8.015C8.13789 8.98643 7.99951 9.99085 8 11C8 11.2652 8.10536 11.5196 8.29289 11.7071C8.48043 11.8946 8.73478 12 9 12C9.26522 12 9.51957 11.8946 9.70711 11.7071C9.89464 11.5196 10 11.2652 10 11C10.0002 9.37745 10.4391 7.78514 11.2702 6.39159C12.1013 4.99803 13.2936 3.85506 14.721 3.08363C16.1485 2.31221 17.7579 1.94102 19.379 2.00935C21.0001 2.07768 22.5726 2.58299 23.9301 3.4718C25.2875 4.36061 26.3795 5.59986 27.0903 7.05841C27.8012 8.51696 28.1045 10.1405 27.9682 11.7574C27.8319 13.3742 27.261 14.9241 26.3161 16.243C25.3711 17.562 24.0871 18.601 22.6 19.25C22.3888 19.3415 22.2157 19.5031 22.1098 19.7075C22.004 19.9118 21.9718 20.1464 22.0188 20.3717C22.0658 20.597 22.1891 20.7992 22.3678 20.9442C22.5466 21.0891 22.7699 21.168 23 21.1675C23.1378 21.1674 23.2741 21.1384 23.4 21.0825C25.7167 20.0719 27.6147 18.2944 28.7748 16.0489C29.9349 13.8034 30.2863 11.2269 29.7699 8.75268C29.2535 6.2785 27.9009 4.05762 25.9394 2.46358C23.978 0.869527 21.5275 -0.000438834 19 1.66064e-07Z" fill="#D63384"/>
</svg>
